<?xml version="1.0" encoding="UTF-8" standalone="no"?>
<!DOCTYPE svg PUBLIC "-//W3C//DTD SVG 1.1//EN"
 "http://www.w3.org/Graphics/SVG/1.1/DTD/svg11.dtd">
<!-- Generated by graphviz version 2.40.1 (20161225.0304)
 -->
<!-- Title: dependencies Pages: 1 -->
<svg width="504pt" height="284pt"
 viewBox="0.00 0.00 504.00 284.00" xmlns="http://www.w3.org/2000/svg" xmlns:xlink="http://www.w3.org/1999/xlink">
<g id="graph0" class="graph" transform="scale(1 1) rotate(0) translate(4 280)">
<title>dependencies</title>
<polygon fill="#ffffff" stroke="transparent" points="-4,4 -4,-280 500,-280 500,4 -4,4"/>
<text text-anchor="start" x="227.0091" y="-42.4" font-family="sans-serif" font-weight="bold" font-size="14.00" fill="#000000">Legend</text>
<polygon fill="#ffffb3" stroke="transparent" points="14,-10 14,-30 34,-30 34,-10 14,-10"/>
<text text-anchor="start" x="37.629" y="-15.4" font-family="sans-serif" font-size="14.00" fill="#000000"> &#160;Declarations</text>
<polygon fill="#8dd3c7" stroke="transparent" points="127,-10 127,-30 147,-30 147,-10 127,-10"/>
<text text-anchor="start" x="150.7251" y="-15.4" font-family="sans-serif" font-size="14.00" fill="#000000"> &#160;Module</text>
<polygon fill="#80b1d3" stroke="transparent" points="213,-10 213,-30 233,-30 233,-10 213,-10"/>
<text text-anchor="start" x="236.7812" y="-15.4" font-family="sans-serif" font-size="14.00" fill="#000000"> &#160;Bootstrap</text>
<polygon fill="#fdb462" stroke="transparent" points="310,-10 310,-30 330,-30 330,-10 310,-10"/>
<text text-anchor="start" x="333.6732" y="-15.4" font-family="sans-serif" font-size="14.00" fill="#000000"> &#160;Providers</text>
<polygon fill="#fb8072" stroke="transparent" points="406,-10 406,-30 426,-30 426,-10 406,-10"/>
<text text-anchor="start" x="429.7258" y="-15.4" font-family="sans-serif" font-size="14.00" fill="#000000"> &#160;Exports</text>
<g id="clust1" class="cluster">
<title>cluster_SharedModule</title>
<polygon fill="none" stroke="#000000" stroke-dasharray="1,5" points="87,-70 87,-268 409,-268 409,-70 87,-70"/>
</g>
<g id="clust2" class="cluster">
<title>cluster_SharedModule_declarations</title>
<polygon fill="none" stroke="#000000" points="99,-78 99,-130 398,-130 398,-78 99,-78"/>
</g>
<g id="clust6" class="cluster">
<title>cluster_SharedModule_exports</title>
<polygon fill="none" stroke="#000000" points="95,-208 95,-260 401,-260 401,-208 95,-208"/>
</g>
<!-- AccordionComponent -->
<g id="node1" class="node">
<title>AccordionComponent</title>
<polygon fill="#ffffb3" stroke="#000000" points="390.42,-122 249.58,-122 249.58,-86 390.42,-86 390.42,-122"/>
<text text-anchor="middle" x="320" y="-99.8" font-family="Times,serif" font-size="14.00" fill="#000000">AccordionComponent</text>
</g>
<!-- SharedModule -->
<g id="node3" class="node">
<title>SharedModule</title>
<polygon fill="#8dd3c7" stroke="#000000" points="219.4231,-187 216.4231,-191 195.4231,-191 192.4231,-187 120.5769,-187 120.5769,-151 219.4231,-151 219.4231,-187"/>
<text text-anchor="middle" x="170" y="-164.8" font-family="Times,serif" font-size="14.00" fill="#000000">SharedModule</text>
</g>
<!-- AccordionComponent&#45;&gt;SharedModule -->
<g id="edge1" class="edge">
<title>AccordionComponent&#45;&gt;SharedModule</title>
<path fill="none" stroke="#000000" d="M343.4032,-122.0225C343.4032,-139.3734 343.4032,-163 343.4032,-163 343.4032,-163 229.2266,-163 229.2266,-163"/>
<polygon fill="#000000" stroke="#000000" points="229.2266,-159.5001 219.2266,-163 229.2265,-166.5001 229.2266,-159.5001"/>
</g>
<!-- NavBarComponent -->
<g id="node2" class="node">
<title>NavBarComponent</title>
<polygon fill="#ffffb3" stroke="#000000" points="231.3655,-122 106.6345,-122 106.6345,-86 231.3655,-86 231.3655,-122"/>
<text text-anchor="middle" x="169" y="-99.8" font-family="Times,serif" font-size="14.00" fill="#000000">NavBarComponent</text>
</g>
<!-- NavBarComponent&#45;&gt;SharedModule -->
<g id="edge2" class="edge">
<title>NavBarComponent&#45;&gt;SharedModule</title>
<path fill="none" stroke="#000000" d="M170,-122.1061C170,-122.1061 170,-140.991 170,-140.991"/>
<polygon fill="#000000" stroke="#000000" points="166.5001,-140.9909 170,-150.991 173.5001,-140.991 166.5001,-140.9909"/>
</g>
<!-- AccordionComponent  -->
<g id="node4" class="node">
<title>AccordionComponent </title>
<polygon fill="#fb8072" stroke="#000000" points="392.9194,-252 249.0806,-252 249.0806,-216 392.9194,-216 392.9194,-252"/>
<text text-anchor="middle" x="321" y="-229.8" font-family="Times,serif" font-size="14.00" fill="#000000">AccordionComponent </text>
</g>
<!-- SharedModule&#45;&gt;AccordionComponent  -->
<g id="edge3" class="edge">
<title>SharedModule&#45;&gt;AccordionComponent </title>
<path fill="none" stroke="#000000" stroke-dasharray="5,2" d="M219.3081,-175C254.8544,-175 296.5968,-175 296.5968,-175 296.5968,-175 296.5968,-205.9775 296.5968,-205.9775"/>
<polygon fill="#000000" stroke="#000000" points="293.0969,-205.9774 296.5968,-215.9775 300.0969,-205.9775 293.0969,-205.9774"/>
</g>
<!-- NavBarComponent  -->
<g id="node5" class="node">
<title>NavBarComponent </title>
<polygon fill="#fb8072" stroke="#000000" points="231.3659,-252 102.6341,-252 102.6341,-216 231.3659,-216 231.3659,-252"/>
<text text-anchor="middle" x="167" y="-229.8" font-family="Times,serif" font-size="14.00" fill="#000000">NavBarComponent </text>
</g>
<!-- SharedModule&#45;&gt;NavBarComponent  -->
<g id="edge4" class="edge">
<title>SharedModule&#45;&gt;NavBarComponent </title>
<path fill="none" stroke="#000000" stroke-dasharray="5,2" d="M170,-187.1061C170,-187.1061 170,-205.991 170,-205.991"/>
<polygon fill="#000000" stroke="#000000" points="166.5001,-205.9909 170,-215.991 173.5001,-205.991 166.5001,-205.9909"/>
</g>
</g>
</svg>
