<?xml version="1.0" encoding="UTF-8" standalone="no"?>
<!DOCTYPE svg PUBLIC "-//W3C//DTD SVG 1.1//EN"
 "http://www.w3.org/Graphics/SVG/1.1/DTD/svg11.dtd">
<!-- Generated by graphviz version 2.40.1 (20161225.0304)
 -->
<!-- Title: dependencies Pages: 1 -->
<svg width="504pt" height="211pt"
 viewBox="0.00 0.00 504.00 211.00" xmlns="http://www.w3.org/2000/svg" xmlns:xlink="http://www.w3.org/1999/xlink">
<g id="graph0" class="graph" transform="scale(1 1) rotate(0) translate(4 207)">
<title>dependencies</title>
<polygon fill="#ffffff" stroke="transparent" points="-4,4 -4,-207 500,-207 500,4 -4,4"/>
<text text-anchor="start" x="227.0091" y="-42.4" font-family="sans-serif" font-weight="bold" font-size="14.00" fill="#000000">Legend</text>
<polygon fill="#ffffb3" stroke="transparent" points="14,-10 14,-30 34,-30 34,-10 14,-10"/>
<text text-anchor="start" x="37.629" y="-15.4" font-family="sans-serif" font-size="14.00" fill="#000000"> &#160;Declarations</text>
<polygon fill="#8dd3c7" stroke="transparent" points="127,-10 127,-30 147,-30 147,-10 127,-10"/>
<text text-anchor="start" x="150.7251" y="-15.4" font-family="sans-serif" font-size="14.00" fill="#000000"> &#160;Module</text>
<polygon fill="#80b1d3" stroke="transparent" points="213,-10 213,-30 233,-30 233,-10 213,-10"/>
<text text-anchor="start" x="236.7812" y="-15.4" font-family="sans-serif" font-size="14.00" fill="#000000"> &#160;Bootstrap</text>
<polygon fill="#fdb462" stroke="transparent" points="310,-10 310,-30 330,-30 330,-10 310,-10"/>
<text text-anchor="start" x="333.6732" y="-15.4" font-family="sans-serif" font-size="14.00" fill="#000000"> &#160;Providers</text>
<polygon fill="#fb8072" stroke="transparent" points="406,-10 406,-30 426,-30 426,-10 406,-10"/>
<text text-anchor="start" x="429.7258" y="-15.4" font-family="sans-serif" font-size="14.00" fill="#000000"> &#160;Exports</text>
<g id="clust1" class="cluster">
<title>cluster_HtmlLandingModule</title>
<polygon fill="none" stroke="#000000" stroke-dasharray="1,5" points="52,-70 52,-195 444,-195 444,-70 52,-70"/>
</g>
<g id="clust2" class="cluster">
<title>cluster_HtmlLandingModule_declarations</title>
<polygon fill="none" stroke="#000000" points="264,-78 264,-130 436,-130 436,-78 264,-78"/>
</g>
<g id="clust4" class="cluster">
<title>cluster_HtmlLandingModule_imports</title>
<polygon fill="none" stroke="#000000" points="60,-78 60,-130 256,-130 256,-78 60,-78"/>
</g>
<!-- HtmlLandingComponent -->
<g id="node1" class="node">
<title>HtmlLandingComponent</title>
<polygon fill="#ffffb3" stroke="#000000" points="428.2688,-122 271.7312,-122 271.7312,-86 428.2688,-86 428.2688,-122"/>
<text text-anchor="middle" x="350" y="-99.8" font-family="Times,serif" font-size="14.00" fill="#000000">HtmlLandingComponent</text>
</g>
<!-- HtmlLandingModule -->
<g id="node2" class="node">
<title>HtmlLandingModule</title>
<polygon fill="#8dd3c7" stroke="#000000" points="321.486,-187 318.486,-191 297.486,-191 294.486,-187 186.514,-187 186.514,-151 321.486,-151 321.486,-187"/>
<text text-anchor="middle" x="254" y="-164.8" font-family="Times,serif" font-size="14.00" fill="#000000">HtmlLandingModule</text>
</g>
<!-- HtmlLandingComponent&#45;&gt;HtmlLandingModule -->
<g id="edge1" class="edge">
<title>HtmlLandingComponent&#45;&gt;HtmlLandingModule</title>
<path fill="none" stroke="#000000" d="M296.5544,-122.1061C296.5544,-122.1061 296.5544,-140.991 296.5544,-140.991"/>
<polygon fill="#000000" stroke="#000000" points="293.0544,-140.9909 296.5544,-150.991 300.0544,-140.991 293.0544,-140.9909"/>
</g>
<!-- HtmlLandingRoutingModule -->
<g id="node3" class="node">
<title>HtmlLandingRoutingModule</title>
<polygon fill="#8dd3c7" stroke="#000000" points="248.1038,-122 245.1038,-126 224.1038,-126 221.1038,-122 67.8962,-122 67.8962,-86 248.1038,-86 248.1038,-122"/>
<text text-anchor="middle" x="158" y="-99.8" font-family="Times,serif" font-size="14.00" fill="#000000">HtmlLandingRoutingModule</text>
</g>
<!-- HtmlLandingRoutingModule&#45;&gt;HtmlLandingModule -->
<g id="edge2" class="edge">
<title>HtmlLandingRoutingModule&#45;&gt;HtmlLandingModule</title>
<path fill="none" stroke="#000000" d="M217.2795,-122.1061C217.2795,-122.1061 217.2795,-140.991 217.2795,-140.991"/>
<polygon fill="#000000" stroke="#000000" points="213.7795,-140.9909 217.2795,-150.991 220.7795,-140.991 213.7795,-140.9909"/>
</g>
</g>
</svg>
