<?xml version="1.0" encoding="UTF-8" standalone="no"?>
<!DOCTYPE svg PUBLIC "-//W3C//DTD SVG 1.1//EN"
 "http://www.w3.org/Graphics/SVG/1.1/DTD/svg11.dtd">
<!-- Generated by graphviz version 2.40.1 (20161225.0304)
 -->
<!-- Title: dependencies Pages: 1 -->
<svg width="568pt" height="211pt"
 viewBox="0.00 0.00 568.00 211.00" xmlns="http://www.w3.org/2000/svg" xmlns:xlink="http://www.w3.org/1999/xlink">
<g id="graph0" class="graph" transform="scale(1 1) rotate(0) translate(4 207)">
<title>dependencies</title>
<polygon fill="#ffffff" stroke="transparent" points="-4,4 -4,-207 564,-207 564,4 -4,4"/>
<text text-anchor="start" x="259.0091" y="-42.4" font-family="sans-serif" font-weight="bold" font-size="14.00" fill="#000000">Legend</text>
<polygon fill="#ffffb3" stroke="transparent" points="46,-10 46,-30 66,-30 66,-10 46,-10"/>
<text text-anchor="start" x="69.629" y="-15.4" font-family="sans-serif" font-size="14.00" fill="#000000"> &#160;Declarations</text>
<polygon fill="#8dd3c7" stroke="transparent" points="159,-10 159,-30 179,-30 179,-10 159,-10"/>
<text text-anchor="start" x="182.7251" y="-15.4" font-family="sans-serif" font-size="14.00" fill="#000000"> &#160;Module</text>
<polygon fill="#80b1d3" stroke="transparent" points="245,-10 245,-30 265,-30 265,-10 245,-10"/>
<text text-anchor="start" x="268.7812" y="-15.4" font-family="sans-serif" font-size="14.00" fill="#000000"> &#160;Bootstrap</text>
<polygon fill="#fdb462" stroke="transparent" points="342,-10 342,-30 362,-30 362,-10 342,-10"/>
<text text-anchor="start" x="365.6732" y="-15.4" font-family="sans-serif" font-size="14.00" fill="#000000"> &#160;Providers</text>
<polygon fill="#fb8072" stroke="transparent" points="438,-10 438,-30 458,-30 458,-10 438,-10"/>
<text text-anchor="start" x="461.7258" y="-15.4" font-family="sans-serif" font-size="14.00" fill="#000000"> &#160;Exports</text>
<g id="clust1" class="cluster">
<title>cluster_AngularLandingModule</title>
<polygon fill="none" stroke="#000000" stroke-dasharray="1,5" points="8,-70 8,-195 552,-195 552,-70 8,-70"/>
</g>
<g id="clust2" class="cluster">
<title>cluster_AngularLandingModule_declarations</title>
<polygon fill="none" stroke="#000000" points="354,-78 354,-130 544,-130 544,-78 354,-78"/>
</g>
<g id="clust4" class="cluster">
<title>cluster_AngularLandingModule_imports</title>
<polygon fill="none" stroke="#000000" points="16,-78 16,-130 346,-130 346,-78 16,-78"/>
</g>
<!-- AngularLandingComponent -->
<g id="node1" class="node">
<title>AngularLandingComponent</title>
<polygon fill="#ffffb3" stroke="#000000" points="535.8627,-122 362.1373,-122 362.1373,-86 535.8627,-86 535.8627,-122"/>
<text text-anchor="middle" x="449" y="-99.8" font-family="Times,serif" font-size="14.00" fill="#000000">AngularLandingComponent</text>
</g>
<!-- AngularLandingModule -->
<g id="node2" class="node">
<title>AngularLandingModule</title>
<polygon fill="#8dd3c7" stroke="#000000" points="315.08,-187 312.08,-191 291.08,-191 288.08,-187 162.92,-187 162.92,-151 315.08,-151 315.08,-187"/>
<text text-anchor="middle" x="239" y="-164.8" font-family="Times,serif" font-size="14.00" fill="#000000">AngularLandingModule</text>
</g>
<!-- AngularLandingComponent&#45;&gt;AngularLandingModule -->
<g id="edge1" class="edge">
<title>AngularLandingComponent&#45;&gt;AngularLandingModule</title>
<path fill="none" stroke="#000000" d="M449,-122.1061C449,-141.3391 449,-169 449,-169 449,-169 325.1117,-169 325.1117,-169"/>
<polygon fill="#000000" stroke="#000000" points="325.1118,-165.5001 315.1117,-169 325.1117,-172.5001 325.1118,-165.5001"/>
</g>
<!-- AngularLandingRoutingModule -->
<g id="node3" class="node">
<title>AngularLandingRoutingModule</title>
<polygon fill="#8dd3c7" stroke="#000000" points="337.6979,-122 334.6979,-126 313.6979,-126 310.6979,-122 140.3021,-122 140.3021,-86 337.6979,-86 337.6979,-122"/>
<text text-anchor="middle" x="239" y="-99.8" font-family="Times,serif" font-size="14.00" fill="#000000">AngularLandingRoutingModule</text>
</g>
<!-- AngularLandingRoutingModule&#45;&gt;AngularLandingModule -->
<g id="edge2" class="edge">
<title>AngularLandingRoutingModule&#45;&gt;AngularLandingModule</title>
<path fill="none" stroke="#000000" d="M239,-122.1061C239,-122.1061 239,-140.991 239,-140.991"/>
<polygon fill="#000000" stroke="#000000" points="235.5001,-140.9909 239,-150.991 242.5001,-140.991 235.5001,-140.9909"/>
</g>
<!-- SharedModule -->
<g id="node4" class="node">
<title>SharedModule</title>
<polygon fill="#8dd3c7" stroke="#000000" points="122.4231,-122 119.4231,-126 98.4231,-126 95.4231,-122 23.5769,-122 23.5769,-86 122.4231,-86 122.4231,-122"/>
<text text-anchor="middle" x="73" y="-99.8" font-family="Times,serif" font-size="14.00" fill="#000000">SharedModule</text>
</g>
<!-- SharedModule&#45;&gt;AngularLandingModule -->
<g id="edge3" class="edge">
<title>SharedModule&#45;&gt;AngularLandingModule</title>
<path fill="none" stroke="#000000" d="M73,-122.1061C73,-141.3391 73,-169 73,-169 73,-169 152.8018,-169 152.8018,-169"/>
<polygon fill="#000000" stroke="#000000" points="152.8018,-172.5001 162.8018,-169 152.8018,-165.5001 152.8018,-172.5001"/>
</g>
</g>
</svg>
