<?xml version="1.0" encoding="UTF-8" standalone="no"?>
<!DOCTYPE svg PUBLIC "-//W3C//DTD SVG 1.1//EN"
 "http://www.w3.org/Graphics/SVG/1.1/DTD/svg11.dtd">
<!-- Generated by graphviz version 2.40.1 (20161225.0304)
 -->
<!-- Title: dependencies Pages: 1 -->
<svg width="504pt" height="211pt"
 viewBox="0.00 0.00 504.00 211.00" xmlns="http://www.w3.org/2000/svg" xmlns:xlink="http://www.w3.org/1999/xlink">
<g id="graph0" class="graph" transform="scale(1 1) rotate(0) translate(4 207)">
<title>dependencies</title>
<polygon fill="#ffffff" stroke="transparent" points="-4,4 -4,-207 500,-207 500,4 -4,4"/>
<text text-anchor="start" x="227.0091" y="-42.4" font-family="sans-serif" font-weight="bold" font-size="14.00" fill="#000000">Legend</text>
<polygon fill="#ffffb3" stroke="transparent" points="14,-10 14,-30 34,-30 34,-10 14,-10"/>
<text text-anchor="start" x="37.629" y="-15.4" font-family="sans-serif" font-size="14.00" fill="#000000"> &#160;Declarations</text>
<polygon fill="#8dd3c7" stroke="transparent" points="127,-10 127,-30 147,-30 147,-10 127,-10"/>
<text text-anchor="start" x="150.7251" y="-15.4" font-family="sans-serif" font-size="14.00" fill="#000000"> &#160;Module</text>
<polygon fill="#80b1d3" stroke="transparent" points="213,-10 213,-30 233,-30 233,-10 213,-10"/>
<text text-anchor="start" x="236.7812" y="-15.4" font-family="sans-serif" font-size="14.00" fill="#000000"> &#160;Bootstrap</text>
<polygon fill="#fdb462" stroke="transparent" points="310,-10 310,-30 330,-30 330,-10 310,-10"/>
<text text-anchor="start" x="333.6732" y="-15.4" font-family="sans-serif" font-size="14.00" fill="#000000"> &#160;Providers</text>
<polygon fill="#fb8072" stroke="transparent" points="406,-10 406,-30 426,-30 426,-10 406,-10"/>
<text text-anchor="start" x="429.7258" y="-15.4" font-family="sans-serif" font-size="14.00" fill="#000000"> &#160;Exports</text>
<g id="clust1" class="cluster">
<title>cluster_OthersModule</title>
<polygon fill="none" stroke="#000000" stroke-dasharray="1,5" points="90,-70 90,-195 406,-195 406,-70 90,-70"/>
</g>
<g id="clust2" class="cluster">
<title>cluster_OthersModule_declarations</title>
<polygon fill="none" stroke="#000000" points="264,-78 264,-130 398,-130 398,-78 264,-78"/>
</g>
<g id="clust4" class="cluster">
<title>cluster_OthersModule_imports</title>
<polygon fill="none" stroke="#000000" points="98,-78 98,-130 256,-130 256,-78 98,-78"/>
</g>
<!-- OthersComponent -->
<g id="node1" class="node">
<title>OthersComponent</title>
<polygon fill="#ffffb3" stroke="#000000" points="390.1499,-122 271.8501,-122 271.8501,-86 390.1499,-86 390.1499,-122"/>
<text text-anchor="middle" x="331" y="-99.8" font-family="Times,serif" font-size="14.00" fill="#000000">OthersComponent</text>
</g>
<!-- OthersModule -->
<g id="node2" class="node">
<title>OthersModule</title>
<polygon fill="#8dd3c7" stroke="#000000" points="302.3669,-187 299.3669,-191 278.3669,-191 275.3669,-187 205.6331,-187 205.6331,-151 302.3669,-151 302.3669,-187"/>
<text text-anchor="middle" x="254" y="-164.8" font-family="Times,serif" font-size="14.00" fill="#000000">OthersModule</text>
</g>
<!-- OthersComponent&#45;&gt;OthersModule -->
<g id="edge1" class="edge">
<title>OthersComponent&#45;&gt;OthersModule</title>
<path fill="none" stroke="#000000" d="M287.0544,-122.1061C287.0544,-122.1061 287.0544,-140.991 287.0544,-140.991"/>
<polygon fill="#000000" stroke="#000000" points="283.5544,-140.9909 287.0544,-150.991 290.5544,-140.991 283.5544,-140.9909"/>
</g>
<!-- OthersRoutingModule -->
<g id="node3" class="node">
<title>OthersRoutingModule</title>
<polygon fill="#8dd3c7" stroke="#000000" points="247.9846,-122 244.9846,-126 223.9846,-126 220.9846,-122 106.0154,-122 106.0154,-86 247.9846,-86 247.9846,-122"/>
<text text-anchor="middle" x="177" y="-99.8" font-family="Times,serif" font-size="14.00" fill="#000000">OthersRoutingModule</text>
</g>
<!-- OthersRoutingModule&#45;&gt;OthersModule -->
<g id="edge2" class="edge">
<title>OthersRoutingModule&#45;&gt;OthersModule</title>
<path fill="none" stroke="#000000" d="M226.7795,-122.1061C226.7795,-122.1061 226.7795,-140.991 226.7795,-140.991"/>
<polygon fill="#000000" stroke="#000000" points="223.2795,-140.9909 226.7795,-150.991 230.2795,-140.991 223.2795,-140.9909"/>
</g>
</g>
</svg>
